<svg width="253" height="73" viewBox="0 0 253 73" fill="none" xmlns="http://www.w3.org/2000/svg">
<path d="M21.745 37.17L21.46 37.075C21.5867 37.1383 21.6817 37.17 21.745 37.17ZM9.775 61.49V62.345C11.2317 64.3083 11.9917 65.29 12.055 65.29C12.3717 65.29 13.1 65.1 14.24 64.72C14.3033 64.72 14.62 64.435 15.19 63.865C15.8233 63.2317 16.2667 62.82 16.52 62.63C17.28 62.1867 17.7867 61.9017 18.04 61.775C18.04 61.2683 18.2617 60.7617 18.705 60.255C19.1483 59.685 19.5283 59.1467 19.845 58.64C20.225 58.07 20.4783 57.6583 20.605 57.405C20.985 56.8983 21.1117 56.645 20.985 56.645C21.1117 56.3917 21.3017 55.8533 21.555 55.03L22.505 52.845L23.55 48.095C23.6767 47.6517 23.5183 46.2583 23.075 43.915V43.06C22.9483 42.87 22.885 42.68 22.885 42.49V42.395L22.79 41.445C22.79 41.1283 22.695 40.59 22.505 39.83C22.3783 39.26 21.9983 38.3417 21.365 37.075H20.32C19.18 37.645 18.325 38.2467 17.755 38.88C17.0583 39.7667 16.1717 41.35 15.095 43.63C14.0183 45.91 13.29 47.9683 12.91 49.805L12.34 52.085C11.5167 53.795 10.9783 55.7583 10.725 57.975L10.25 59.305L9.775 61.49ZM31.435 34.225C32.7017 36.9483 33.335 39.2283 33.335 41.065C33.335 44.7383 33.0183 47.525 32.385 49.425C32.385 50.1217 32.3217 50.66 32.195 51.04C31.625 55.22 30.8967 58.3233 30.01 60.35C29.6933 60.7933 29.345 61.49 28.965 62.44C28.585 63.5167 27.635 64.7517 26.115 66.145C26.115 66.335 25.64 66.905 24.69 67.855C23.74 68.8683 22.2517 69.6917 20.225 70.325C17.8817 71.085 16.3617 71.465 15.665 71.465C12.055 72.035 9.42667 71.4967 7.78 69.85L7.685 69.945C6.41833 72.1617 4.89833 72.8267 3.125 71.94C2.04833 71.37 1.415 70.99 1.225 70.8C1.09833 70.61 1.00333 70.1983 0.94 69.565C0.496667 68.425 0.338334 67.095 0.465 65.575L0.94 62.44C0.75 61.3633 0.718334 60.4133 0.845 59.59V58.925C0.971667 57.6583 1.06667 55.2517 1.13 51.705C1.19333 48.095 1.28833 45.91 1.415 45.15C1.605 44.3267 1.7 43.5667 1.7 42.87C2.46 34.1933 2.87167 29.57 2.935 29C3.06167 28.3667 3.125 26.3083 3.125 22.825V17.6C3.125 16.5867 3.09333 15.8267 3.03 15.32C3.03 14.8133 3.15667 14.465 3.41 14.275C2.90333 12.8183 2.80833 11.1717 3.125 9.33499V8.195C2.99833 6.99167 3.25167 5.85166 3.885 4.775C4.32833 4.205 5.215 3.66666 6.545 3.16C7.875 2.65333 8.98333 2.36833 9.87 2.30499H10.345C11.1683 2.30499 11.8967 2.52666 12.53 2.97C13.29 3.28666 13.67 4.04666 13.67 5.25C13.7967 5.63 13.7967 6.04166 13.67 6.485C13.7333 6.92833 13.4167 11.425 12.72 19.975C12.0867 28.4617 11.77 33.1167 11.77 33.94C11.77 34.7 11.7383 35.2067 11.675 35.46C11.675 35.65 11.675 35.7767 11.675 35.84C11.9917 35.7133 12.1817 35.4917 12.245 35.175C12.3083 34.8583 12.435 34.6367 12.625 34.51C13.7017 33.75 14.24 33.2117 14.24 32.895C14.24 32.8317 14.3983 32.6733 14.715 32.42C15.0317 32.1667 15.2217 32.04 15.285 32.04C15.4117 31.85 15.6333 31.7233 15.95 31.66L17.66 30.805C17.7233 30.425 18.6417 30.2667 20.415 30.33C22.1883 30.33 23.265 30.4567 23.645 30.71C24.2783 31.0267 24.69 31.2483 24.88 31.375C25.1333 31.4383 25.355 31.5017 25.545 31.565C25.7983 31.565 26.685 31.8183 28.205 32.325C28.9017 32.325 29.25 32.42 29.25 32.61C29.5033 32.7367 29.6933 32.8 29.82 32.8C30.8967 33.4333 31.435 33.9083 31.435 34.225ZM58.6659 38.975C58.2225 36.4417 56.9875 35.27 54.9609 35.46C53.8209 35.5233 52.8392 36.2833 52.0159 37.74C50.8759 39.9567 50.3692 42.8383 50.4959 46.385C50.6859 49.8683 50.9392 52.4017 51.2559 53.985C51.6359 55.505 52.2692 56.835 53.1559 57.975C53.6625 58.8617 54.4225 59.2733 55.4359 59.21C57.2092 59.21 58.5075 57.7217 59.3309 54.745L60.0909 52.465C60.4075 52.1483 60.4709 51.8317 60.2809 51.515C60.9142 49.9317 61.2625 48.0633 61.3259 45.91C60.6925 45.4667 60.3125 45.055 60.1859 44.675C59.8059 43.5983 59.6159 42.87 59.6159 42.49C59.1725 42.1733 58.9192 41.5717 58.8559 40.685C58.7925 39.7983 58.7292 39.2283 58.6659 38.975ZM41.2809 47.905L41.6609 43.06C42.1042 38.69 43.4342 34.9533 45.6509 31.85C47.8042 29.2533 50.8442 27.9233 54.7709 27.86H55.3409C59.0142 27.86 61.6742 28.6517 63.3209 30.235C65.0942 31.6283 66.3925 33.1483 67.2159 34.795C68.1025 36.4417 68.6725 37.645 68.9259 38.405C69.1792 39.165 69.3375 40.2733 69.4009 41.73C69.5275 44.4533 68.9892 46.005 67.7859 46.385C68.6725 52.4017 68.1342 57.1833 66.1709 60.73C65.5375 62.1867 64.6192 63.77 63.4159 65.48C62.5292 66.62 60.9459 67.2533 58.6659 67.38C56.3859 67.38 54.3909 67.2533 52.6809 67C51.0342 66.7467 49.1975 65.955 47.1709 64.625C45.1442 63.2317 43.7192 60.9833 42.8959 57.88C42.0092 54.9033 41.4709 51.5783 41.2809 47.905ZM98.073 44.01L97.598 41.54C97.598 41.35 97.5347 41.1283 97.408 40.875C97.3447 40.6217 97.2497 40.1467 97.123 39.45C96.6164 39.07 96.268 38.785 96.078 38.595L95.603 37.835L95.318 36.98C95.0014 36.79 94.8114 36.5367 94.748 36.22C94.748 35.84 94.6214 35.555 94.368 35.365C94.178 35.1117 94.0197 34.89 93.893 34.7C93.7664 34.4467 93.6397 34.2883 93.513 34.225C92.943 33.845 92.183 33.8133 91.233 34.13C90.283 34.4467 89.713 34.89 89.523 35.46C88.4464 37.8667 87.908 39.4183 87.908 40.115C87.0214 43.155 86.768 45.3083 87.148 46.575C87.0214 48.6017 87.2747 51.3883 87.908 54.935V55.98C88.478 56.74 89.0164 57.7533 89.523 59.02C90.1564 59.8433 90.568 60.445 90.758 60.825C91.0114 61.1417 91.1697 61.3317 91.233 61.395C91.8664 61.8383 92.2464 62.155 92.373 62.345C92.8797 62.0917 93.228 61.9017 93.418 61.775V61.11C93.7347 60.8567 94.0197 60.6667 94.273 60.54C94.2097 60.54 94.4314 60.3183 94.938 59.875L95.413 59.4C96.363 57.3733 96.838 56.3283 96.838 56.265C96.838 56.1383 96.8064 55.9167 96.743 55.6C96.4897 55.03 96.648 54.5867 97.218 54.27C97.218 54.27 97.598 53.1617 98.358 50.945V50.375C98.4847 49.995 98.4214 49.71 98.168 49.52V48.855C98.2947 48.6017 98.358 48.3483 98.358 48.095C98.6114 47.0817 98.7064 46.48 98.643 46.29C98.643 46.1 98.6747 45.8783 98.738 45.625C98.8014 45.3083 98.8964 45.0867 99.023 44.96C99.213 44.7067 98.8964 44.39 98.073 44.01ZM84.583 26.055C85.153 26.055 85.5647 25.9917 85.818 25.865C86.1347 25.675 86.673 25.4533 87.433 25.2C88.2564 24.9467 90.1564 24.9467 93.133 25.2C94.7797 25.5167 96.6164 26.34 98.643 27.67C100.733 28.6833 102.411 30.0767 103.678 31.85C105.451 36.5367 106.433 40.6217 106.623 44.105C106.75 49.425 106.243 53.8267 105.103 57.31C103.52 61.3 102.475 63.6433 101.968 64.34C101.841 65.1633 101.335 66.24 100.448 67.57C100.131 67.57 99.878 67.6017 99.688 67.665C99.688 67.7283 99.498 67.9183 99.118 68.235C98.8014 68.615 98.3264 68.805 97.693 68.805C96.8697 68.995 96.363 69.1533 96.173 69.28C96.0464 69.47 95.7297 69.565 95.223 69.565L92.848 69.755H90.283C88.573 69.755 87.2114 69.5333 86.198 69.09L83.348 67.19L82.398 66.05C82.208 66.05 82.0814 65.9867 82.018 65.86C82.018 65.67 81.9864 65.5117 81.923 65.385C81.353 64.9417 81.068 64.435 81.068 63.865C80.3714 62.7883 80.023 62.0283 80.023 61.585C80.023 61.1417 79.928 60.825 79.738 60.635C79.738 59.685 79.453 58.2917 78.883 56.455L78.693 55.125V54.08C78.6297 53.13 78.3764 52.0217 77.933 50.755C78.0597 50.6283 78.0597 50.28 77.933 49.71C77.933 48.2533 77.9647 47.2717 78.028 46.765L77.743 45.53C77.933 45.15 77.9964 44.8017 77.933 44.485C77.933 44.1683 78.028 43.6933 78.218 43.06V42.395L78.598 39.07C78.598 38.6267 78.6614 38.2783 78.788 38.025V37.36C78.9147 37.36 79.0097 37.0433 79.073 36.41L79.548 35.65L79.643 34.89C79.643 34.7 79.6114 34.51 79.548 34.32L80.023 32.895C80.023 32.7683 80.2447 32.3883 80.688 31.755C80.688 31.4383 80.9097 30.9633 81.353 30.33C81.353 30.0133 81.5114 29.6333 81.828 29.19C81.828 28.62 82.1764 27.8917 82.873 27.005C83.5064 26.3717 84.0764 26.055 84.583 26.055ZM117.415 9.145C117.415 8.955 117.447 8.73333 117.51 8.47999V5.44C117.574 5.25 117.605 4.99666 117.605 4.68C117.605 4.3 117.669 3.98333 117.795 3.73C117.795 2.90667 118.144 2.14666 118.84 1.44999C119.094 0.943331 119.442 0.626664 119.885 0.499995C120.709 0.183329 122.292 0.436663 124.635 1.26C124.572 1.19666 124.635 1.22833 124.825 1.355C125.079 1.41833 125.237 1.44999 125.3 1.44999C125.934 1.51333 126.472 2.08333 126.915 3.16C126.915 3.85666 127.042 6.13667 127.295 10C127.549 13.8633 127.58 17.03 127.39 19.5V20.45C127.2 25.2633 127.105 29.3167 127.105 32.61C126.979 32.99 126.979 33.4017 127.105 33.845C126.979 34.605 126.915 36.4417 126.915 39.355L127.675 38.31L128.15 37.36C128.15 37.17 128.277 36.9483 128.53 36.695C128.784 36.3783 128.942 36.1567 129.005 36.03C129.069 35.84 129.164 35.6817 129.29 35.555C129.417 35.365 129.512 35.2067 129.575 35.08C129.702 34.89 130.05 34.605 130.62 34.225C130.62 34.035 130.969 33.6233 131.665 32.99L136.035 27.48L138.505 25.77C138.759 25.39 139.392 25.0733 140.405 24.82C141.482 24.5033 142.464 24.3767 143.35 24.44C144.3 23.87 145.694 24.1867 147.53 25.39C148.48 26.2767 148.512 27.385 147.625 28.715C146.042 31.0583 145.092 32.42 144.775 32.8L140.69 38.5L139.55 40.305C137.334 43.155 135.94 44.865 135.37 45.435C134.864 45.9417 134.642 46.385 134.705 46.765C135.529 47.5883 136.225 48.1267 136.795 48.38C137.049 48.6967 137.27 48.9817 137.46 49.235C137.714 49.425 137.84 49.5517 137.84 49.615L142.4 54.175C144.744 56.7083 146.485 58.7983 147.625 60.445L151.995 65.29C153.072 65.9233 153.61 66.5883 153.61 67.285C153.61 67.9817 153.009 68.5833 151.805 69.09C151.425 69.47 150.254 69.565 148.29 69.375C146.96 69.6283 145.979 69.5967 145.345 69.28C143.572 69.2167 141.862 68.615 140.215 67.475C139.139 66.6517 138.6 66.05 138.6 65.67C138.284 65.2267 137.967 64.8467 137.65 64.53C137.27 64.0233 136.954 63.5483 136.7 63.105C136.194 62.8517 135.56 62.0283 134.8 60.635C134.23 60.255 133.945 60.0333 133.945 59.97C133.945 59.8433 133.755 59.6217 133.375 59.305C132.995 58.9883 132.742 58.7983 132.615 58.735C132.615 58.4817 132.077 57.69 131 56.36C130.62 56.17 130.304 55.9167 130.05 55.6C129.86 55.22 129.797 55.03 129.86 55.03L128.055 52.75L127.295 51.61C127.295 56.4233 127.77 61.2683 128.72 66.145C128.847 67.1583 128.91 67.76 128.91 67.95C128.974 68.14 129.005 68.2983 129.005 68.425C129.069 68.615 129.1 68.7417 129.1 68.805L128.435 68.52C128.625 68.6467 128.815 68.995 129.005 69.565C129.195 70.135 129.259 70.515 129.195 70.705C128.625 71.3383 128.245 71.75 128.055 71.94C127.929 72.13 127.517 72.2567 126.82 72.32C126.187 72.3833 125.839 72.2883 125.775 72.035C124.635 71.465 123.97 71.085 123.78 70.895C123.4 70.8317 122.64 70.515 121.5 69.945C121.437 69.6917 121.342 69.5017 121.215 69.375C120.645 68.995 120.202 68.52 119.885 67.95C119.632 67.8233 119.347 67.38 119.03 66.62C118.46 65.5433 118.175 64.3717 118.175 63.105C118.049 62.5983 117.954 62.3133 117.89 62.25C117.827 62.1867 117.795 61.9333 117.795 61.49L117.51 59.02C117.32 58.3233 117.289 57.7217 117.415 57.215L116.94 55.695L116.75 52.37L116.94 51.04C116.56 50.47 116.529 49.6467 116.845 48.57V48C116.782 47.8733 116.719 47.3033 116.655 46.29C116.592 45.2767 116.592 44.675 116.655 44.485C116.719 44.295 116.75 44.0733 116.75 43.82C116.624 42.9333 116.56 42.1417 116.56 41.445V40.4C116.244 34.0667 116.085 30.8367 116.085 30.71V28.05C116.022 27.6067 116.054 26.5617 116.18 24.915C116.37 23.2683 116.434 21.9383 116.37 20.925C116.37 19.9117 116.434 19.2783 116.56 19.025C116.56 18.455 116.624 17.885 116.75 17.315V16.27C116.814 16.08 116.877 15.4783 116.94 14.465L117.415 9.145ZM158.923 53.7H159.018C160.221 53.51 161.424 53.8583 162.628 54.745L163.578 55.79C163.641 56.0433 164.053 56.4233 164.813 56.93C164.876 57.12 164.781 57.9433 164.528 59.4C164.971 59.7167 165.351 60.5717 165.668 61.965C165.731 63.295 165.509 65.5117 165.003 68.615C165.129 68.9317 165.034 69.2483 164.718 69.565C164.021 70.2617 162.691 70.2933 160.728 69.66C160.728 69.7233 160.664 69.7233 160.538 69.66C160.474 69.66 160.221 69.5967 159.778 69.47C159.398 69.4067 159.081 69.3433 158.828 69.28C158.638 69.28 157.878 69.1217 156.548 68.805C155.408 68.3617 154.838 68.045 154.838 67.855C154.141 67.1583 153.793 66.5883 153.793 66.145C153.413 65.385 153.349 64.4983 153.603 63.485C153.856 62.4717 154.046 61.6483 154.173 61.015L155.028 59.4C155.028 58.9567 155.376 58.0067 156.073 56.55C156.199 55.7267 156.358 55.22 156.548 55.03C157.561 54.3967 158.353 53.9533 158.923 53.7ZM174.996 40.4L176.041 35.555L176.136 33.465C176.263 33.4017 176.421 32.99 176.611 32.23C176.928 29.8867 178.226 28.715 180.506 28.715C181.71 28.7783 183.008 29.1267 184.401 29.76C184.908 29.76 185.288 29.9817 185.541 30.425C185.858 30.4883 186.143 30.6783 186.396 30.995C186.65 31.3117 186.681 31.755 186.491 32.325C186.301 32.8317 186.175 33.275 186.111 33.655C186.111 33.9717 185.953 35.08 185.636 36.98C184.75 41.73 184.37 44.9283 184.496 46.575L189.626 38.785L191.526 35.365C192.603 34.795 193.585 34.415 194.471 34.225C194.915 34.225 195.421 34.32 195.991 34.51C197.828 34.7633 198.746 35.0167 198.746 35.27L199.886 36.03C200.646 36.9167 201.026 37.645 201.026 38.215C201.09 38.785 201.026 39.355 200.836 39.925C200.71 40.4317 200.52 41.0967 200.266 41.92C200.266 41.9833 199.601 45.5933 198.271 52.75L202.071 44.58L203.021 43.345C203.021 42.775 203.655 41.5717 204.921 39.735L205.871 38.025C205.871 37.835 206.093 37.5183 206.536 37.075C206.726 37.075 206.916 36.79 207.106 36.22C207.93 34.9533 208.69 34.1617 209.386 33.845C210.463 33.465 211.793 33.4017 213.376 33.655L214.611 34.225C214.865 34.7317 215.055 35.0167 215.181 35.08H215.466C216.226 35.7767 216.511 36.5683 216.321 37.455C216.068 38.6583 215.941 39.45 215.941 39.83L214.896 47.24C214.77 47.3667 214.706 47.5567 214.706 47.81C214.58 47.9367 214.39 49.6467 214.136 52.94C213.946 56.2333 213.851 59.4633 213.851 62.63L213.946 63.77L214.421 65.385L215.086 66.905C215.213 67.665 215.023 68.2983 214.516 68.805C214.073 69.375 213.503 69.66 212.806 69.66C208.5 69.5333 206.156 68.1717 205.776 65.575C205.586 65.2583 205.491 64.91 205.491 64.53C205.491 64.15 205.365 63.58 205.111 62.82V61.775L205.301 60.35C205.111 60.35 205.016 59.3367 205.016 57.31C205.016 55.22 205.08 54.0167 205.206 53.7C205.46 52.6233 205.586 51.4833 205.586 50.28C205.396 50.5333 205.08 50.9133 204.636 51.42C203.75 52.4333 203.18 53.1933 202.926 53.7L201.121 57.5C199.728 60.6667 198.683 62.6933 197.986 63.58C197.29 64.4667 196.15 64.8783 194.566 64.815C192.983 64.7517 192.001 64.53 191.621 64.15C191.115 63.8967 190.703 63.7067 190.386 63.58C190.133 63.39 190.038 62.6617 190.101 61.395V60.445L191.336 52.655C191.716 51.2617 191.906 50.4383 191.906 50.185L192.286 47.905V46.1L191.336 47.43L190.481 49.14C190.228 49.3933 190.101 49.71 190.101 50.09C189.785 50.28 189.531 50.6283 189.341 51.135L185.636 58.64C184.56 60.8567 183.958 62.535 183.831 63.675C183.451 64.3083 182.976 65.0367 182.406 65.86C181.9 66.6833 181.33 67.0633 180.696 67C180.126 66.8733 179.715 66.715 179.461 66.525C179.208 66.335 179.113 66.0817 179.176 65.765C178.416 66.0817 177.815 65.8283 177.371 65.005L175.091 62.06C174.838 61.87 174.711 61.5217 174.711 61.015C174.901 60.255 174.901 59.6217 174.711 59.115C174.521 58.6083 174.458 58.1967 174.521 57.88C174.395 57.31 174.331 56.5183 174.331 55.505C174.331 54.3017 174.236 53.415 174.046 52.845C174.046 52.3383 174.11 51.8317 174.236 51.325V50.375C174.11 47.5883 174.3 45.9417 174.806 45.435C174.426 44.865 174.458 43.5667 174.901 41.54L174.996 40.4ZM243.581 36.6V35.555C243.581 34.8583 243.549 34.51 243.486 34.51L242.916 34.32C242.473 34.32 242.124 34.2567 241.871 34.13C241.428 34.2567 241.079 34.4467 240.826 34.7C240.003 35.2067 239.433 35.8083 239.116 36.505L237.026 40.685C236.076 42.6483 235.538 45.1817 235.411 48.285C237.058 48.9817 238.261 48.95 239.021 48.19C239.464 47.81 239.844 47.3667 240.161 46.86C240.288 46.4167 240.541 46.005 240.921 45.625C241.301 45.1817 241.681 44.1367 242.061 42.49C243.074 40.9067 243.581 38.9433 243.581 36.6ZM252.036 37.93V38.975C251.909 42.8383 250.769 46.3217 248.616 49.425C248.299 49.8683 247.856 50.375 247.286 50.945L245.196 53.035C244.753 53.4783 244.183 53.89 243.486 54.27L241.396 54.84C241.206 54.7133 240.668 54.5867 239.781 54.46C239.084 54.7133 238.483 54.65 237.976 54.27C237.913 54.27 237.564 54.1433 236.931 53.89C236.361 53.6367 235.633 53.4783 234.746 53.415C234.873 54.4283 234.936 55.5367 234.936 56.74L236.076 61.11C236.773 62.44 237.438 63.295 238.071 63.675C238.768 63.9917 239.496 64.1817 240.256 64.245C241.079 64.245 241.681 64.15 242.061 63.96C242.504 63.77 243.233 63.485 244.246 63.105L246.146 62.155C247.476 61.395 248.616 61.585 249.566 62.725C250.073 63.295 250.294 64.055 250.231 65.005C250.168 65.8917 249.788 66.715 249.091 67.475C248.711 68.3617 247.729 69.185 246.146 69.945C246.083 69.945 245.798 70.0717 245.291 70.325C242.441 71.7183 239.274 71.9083 235.791 70.895L233.986 70.04C233.796 70.04 233.606 69.945 233.416 69.755C232.656 69.565 231.833 69.09 230.946 68.33C230.059 67.57 229.426 66.9367 229.046 66.43C228.729 65.9233 228.508 65.575 228.381 65.385C228.254 65.195 228.033 64.7833 227.716 64.15C226.639 62.1233 225.848 60.1917 225.341 58.355L224.771 55.6C224.898 55.3467 224.929 54.6183 224.866 53.415V51.895C224.296 50.8817 224.644 48.57 225.911 44.96C226.924 40.1467 227.748 37.3283 228.381 36.505L229.616 34.035C229.616 33.9717 229.996 33.4967 230.756 32.61C230.883 32.2933 231.611 31.66 232.941 30.71C233.194 30.33 233.574 30.1083 234.081 30.045C234.334 29.7917 234.746 29.57 235.316 29.38C235.823 28.9367 236.583 28.6517 237.596 28.525C238.546 28.2083 240.003 28.1133 241.966 28.24C246.463 28.62 249.534 30.52 251.181 33.94L251.846 36.03C251.846 36.3467 251.941 36.7267 252.131 37.17C252.068 37.2967 252.036 37.55 252.036 37.93Z" fill="white"/>
</svg>
