<svg width="133" height="39" viewBox="0 0 133 39" fill="none" xmlns="http://www.w3.org/2000/svg">
<path d="M11.55 20.3L11.4 20.25C11.4667 20.2833 11.5167 20.3 11.55 20.3ZM5.25 33.1V33.55C6.01667 34.5833 6.41667 35.1 6.45 35.1C6.61667 35.1 7 35 7.6 34.8C7.63333 34.8 7.8 34.65 8.1 34.35C8.43333 34.0167 8.66667 33.8 8.8 33.7C9.2 33.4667 9.46667 33.3167 9.6 33.25C9.6 32.9833 9.71667 32.7167 9.95 32.45C10.1833 32.15 10.3833 31.8667 10.55 31.6C10.75 31.3 10.8833 31.0833 10.95 30.95C11.15 30.6833 11.2167 30.55 11.15 30.55C11.2167 30.4167 11.3167 30.1333 11.45 29.7L11.95 28.55L12.5 26.05C12.5667 25.8167 12.4833 25.0833 12.25 23.85V23.4C12.1833 23.3 12.15 23.2 12.15 23.1V23.05L12.1 22.55C12.1 22.3833 12.05 22.1 11.95 21.7C11.8833 21.4 11.6833 20.9167 11.35 20.25H10.8C10.2 20.55 9.75 20.8667 9.45 21.2C9.08333 21.6667 8.61667 22.5 8.05 23.7C7.48333 24.9 7.1 25.9833 6.9 26.95L6.6 28.15C6.16667 29.05 5.88333 30.0833 5.75 31.25L5.5 31.95L5.25 33.1ZM16.65 18.75C17.3167 20.1833 17.65 21.3833 17.65 22.35C17.65 24.2833 17.4833 25.75 17.15 26.75C17.15 27.1167 17.1167 27.4 17.05 27.6C16.75 29.8 16.3667 31.4333 15.9 32.5C15.7333 32.7333 15.55 33.1 15.35 33.6C15.15 34.1667 14.65 34.8167 13.85 35.55C13.85 35.65 13.6 35.95 13.1 36.45C12.6 36.9833 11.8167 37.4167 10.75 37.75C9.51667 38.15 8.71667 38.35 8.35 38.35C6.45 38.65 5.06667 38.3667 4.2 37.5L4.15 37.55C3.48333 38.7167 2.68333 39.0667 1.75 38.6C1.18333 38.3 0.85 38.1 0.75 38C0.683333 37.9 0.633333 37.6833 0.6 37.35C0.366667 36.75 0.283333 36.05 0.35 35.25L0.6 33.6C0.5 33.0333 0.483333 32.5333 0.55 32.1V31.75C0.616667 31.0833 0.666667 29.8167 0.7 27.95C0.733333 26.05 0.783334 24.9 0.85 24.5C0.95 24.0667 1 23.6667 1 23.3C1.4 18.7333 1.61667 16.3 1.65 16C1.71667 15.6667 1.75 14.5833 1.75 12.75V10C1.75 9.46667 1.73333 9.06667 1.7 8.8C1.7 8.53333 1.76667 8.35 1.9 8.25C1.63333 7.48333 1.58333 6.61667 1.75 5.65V5.05C1.68333 4.41667 1.81667 3.81667 2.15 3.25C2.38333 2.95 2.85 2.66666 3.55 2.4C4.25 2.13333 4.83333 1.98333 5.3 1.95H5.55C5.98333 1.95 6.36667 2.06666 6.7 2.3C7.1 2.46667 7.3 2.86667 7.3 3.5C7.36667 3.7 7.36667 3.91666 7.3 4.15C7.33333 4.38333 7.16667 6.75 6.8 11.25C6.46667 15.7167 6.3 18.1667 6.3 18.6C6.3 19 6.28333 19.2667 6.25 19.4C6.25 19.5 6.25 19.5667 6.25 19.6C6.41667 19.5333 6.51667 19.4167 6.55 19.25C6.58333 19.0833 6.65 18.9667 6.75 18.9C7.31667 18.5 7.6 18.2167 7.6 18.05C7.6 18.0167 7.68333 17.9333 7.85 17.8C8.01667 17.6667 8.11667 17.6 8.15 17.6C8.21667 17.5 8.33333 17.4333 8.5 17.4L9.4 16.95C9.43333 16.75 9.91667 16.6667 10.85 16.7C11.7833 16.7 12.35 16.7667 12.55 16.9C12.8833 17.0667 13.1 17.1833 13.2 17.25C13.3333 17.2833 13.45 17.3167 13.55 17.35C13.6833 17.35 14.15 17.4833 14.95 17.75C15.3167 17.75 15.5 17.8 15.5 17.9C15.6333 17.9667 15.7333 18 15.8 18C16.3667 18.3333 16.65 18.5833 16.65 18.75ZM30.982 21.25C30.7487 19.9167 30.0987 19.3 29.032 19.4C28.432 19.4333 27.9154 19.8333 27.482 20.6C26.882 21.7667 26.6154 23.2833 26.682 25.15C26.782 26.9833 26.9154 28.3167 27.082 29.15C27.282 29.95 27.6154 30.65 28.082 31.25C28.3487 31.7167 28.7487 31.9333 29.282 31.9C30.2154 31.9 30.8987 31.1167 31.332 29.55L31.732 28.35C31.8987 28.1833 31.932 28.0167 31.832 27.85C32.1654 27.0167 32.3487 26.0333 32.382 24.9C32.0487 24.6667 31.8487 24.45 31.782 24.25C31.582 23.6833 31.482 23.3 31.482 23.1C31.2487 22.9333 31.1154 22.6167 31.082 22.15C31.0487 21.6833 31.0154 21.3833 30.982 21.25ZM21.832 25.95L22.032 23.4C22.2654 21.1 22.9654 19.1333 24.132 17.5C25.2654 16.1333 26.8654 15.4333 28.932 15.4H29.232C31.1654 15.4 32.5654 15.8167 33.432 16.65C34.3654 17.3833 35.0487 18.1833 35.482 19.05C35.9487 19.9167 36.2487 20.55 36.382 20.95C36.5154 21.35 36.5987 21.9333 36.632 22.7C36.6987 24.1333 36.4154 24.95 35.782 25.15C36.2487 28.3167 35.9654 30.8333 34.932 32.7C34.5987 33.4667 34.1154 34.3 33.482 35.2C33.0154 35.8 32.182 36.1333 30.982 36.2C29.782 36.2 28.732 36.1333 27.832 36C26.9654 35.8667 25.9987 35.45 24.932 34.75C23.8654 34.0167 23.1154 32.8333 22.682 31.2C22.2154 29.6333 21.932 27.8833 21.832 25.95ZM51.7227 23.9L51.4727 22.6C51.4727 22.5 51.4393 22.3833 51.3727 22.25C51.3393 22.1167 51.2893 21.8667 51.2227 21.5C50.956 21.3 50.7727 21.15 50.6727 21.05L50.4227 20.65L50.2727 20.2C50.106 20.1 50.006 19.9667 49.9727 19.8C49.9727 19.6 49.906 19.45 49.7727 19.35C49.6727 19.2167 49.5893 19.1 49.5227 19C49.456 18.8667 49.3893 18.7833 49.3227 18.75C49.0227 18.55 48.6227 18.5333 48.1227 18.7C47.6227 18.8667 47.3227 19.1 47.2227 19.4C46.656 20.6667 46.3727 21.4833 46.3727 21.85C45.906 23.45 45.7727 24.5833 45.9727 25.25C45.906 26.3167 46.0393 27.7833 46.3727 29.65V30.2C46.6727 30.6 46.956 31.1333 47.2227 31.8C47.556 32.2333 47.7727 32.55 47.8727 32.75C48.006 32.9167 48.0893 33.0167 48.1227 33.05C48.456 33.2833 48.656 33.45 48.7227 33.55C48.9893 33.4167 49.1727 33.3167 49.2727 33.25V32.9C49.4393 32.7667 49.5893 32.6667 49.7227 32.6C49.6893 32.6 49.806 32.4833 50.0727 32.25L50.3227 32C50.8227 30.9333 51.0727 30.3833 51.0727 30.35C51.0727 30.2833 51.056 30.1667 51.0227 30C50.8893 29.7 50.9727 29.4667 51.2727 29.3C51.2727 29.3 51.4727 28.7167 51.8727 27.55V27.25C51.9393 27.05 51.906 26.9 51.7727 26.8V26.45C51.8393 26.3167 51.8727 26.1833 51.8727 26.05C52.006 25.5167 52.056 25.2 52.0227 25.1C52.0227 25 52.0393 24.8833 52.0727 24.75C52.106 24.5833 52.156 24.4667 52.2227 24.4C52.3227 24.2667 52.156 24.1 51.7227 23.9ZM44.6227 14.45C44.9227 14.45 45.1393 14.4167 45.2727 14.35C45.4393 14.25 45.7227 14.1333 46.1227 14C46.556 13.8667 47.556 13.8667 49.1227 14C49.9893 14.1667 50.956 14.6 52.0227 15.3C53.1227 15.8333 54.006 16.5667 54.6727 17.5C55.606 19.9667 56.1227 22.1167 56.2227 23.95C56.2893 26.75 56.0227 29.0667 55.4227 30.9C54.5893 33 54.0393 34.2333 53.7727 34.6C53.706 35.0333 53.4393 35.6 52.9727 36.3C52.806 36.3 52.6727 36.3167 52.5727 36.35C52.5727 36.3833 52.4727 36.4833 52.2727 36.65C52.106 36.85 51.856 36.95 51.5227 36.95C51.0893 37.05 50.8227 37.1333 50.7227 37.2C50.656 37.3 50.4893 37.35 50.2227 37.35L48.9727 37.45H47.6227C46.7227 37.45 46.006 37.3333 45.4727 37.1L43.9727 36.1L43.4727 35.5C43.3727 35.5 43.306 35.4667 43.2727 35.4C43.2727 35.3 43.256 35.2167 43.2227 35.15C42.9227 34.9167 42.7727 34.65 42.7727 34.35C42.406 33.7833 42.2227 33.3833 42.2227 33.15C42.2227 32.9167 42.1727 32.75 42.0727 32.65C42.0727 32.15 41.9227 31.4167 41.6227 30.45L41.5227 29.75V29.2C41.4893 28.7 41.356 28.1167 41.1227 27.45C41.1893 27.3833 41.1893 27.2 41.1227 26.9C41.1227 26.1333 41.1393 25.6167 41.1727 25.35L41.0227 24.7C41.1227 24.5 41.156 24.3167 41.1227 24.15C41.1227 23.9833 41.1727 23.7333 41.2727 23.4V23.05L41.4727 21.3C41.4727 21.0667 41.506 20.8833 41.5727 20.75V20.4C41.6393 20.4 41.6893 20.2333 41.7227 19.9L41.9727 19.5L42.0227 19.1C42.0227 19 42.006 18.9 41.9727 18.8L42.2227 18.05C42.2227 17.9833 42.3393 17.7833 42.5727 17.45C42.5727 17.2833 42.6893 17.0333 42.9227 16.7C42.9227 16.5333 43.006 16.3333 43.1727 16.1C43.1727 15.8 43.356 15.4167 43.7227 14.95C44.056 14.6167 44.356 14.45 44.6227 14.45ZM61.9027 5.55C61.9027 5.45 61.9194 5.33333 61.9527 5.2V3.6C61.9861 3.5 62.0027 3.36667 62.0027 3.2C62.0027 3 62.0361 2.83333 62.1027 2.7C62.1027 2.26667 62.2861 1.86667 62.6527 1.5C62.7861 1.23333 62.9694 1.06667 63.2027 0.999998C63.6361 0.833331 64.4694 0.966665 65.7027 1.4C65.6694 1.36667 65.7027 1.38333 65.8027 1.45C65.9361 1.48333 66.0194 1.5 66.0527 1.5C66.3861 1.53333 66.6694 1.83333 66.9027 2.4C66.9027 2.76667 66.9694 3.96667 67.1027 6C67.2361 8.03333 67.2527 9.7 67.1527 11V11.5C67.0527 14.0333 67.0027 16.1667 67.0027 17.9C66.9361 18.1 66.9361 18.3167 67.0027 18.55C66.9361 18.95 66.9027 19.9167 66.9027 21.45L67.3027 20.9L67.5527 20.4C67.5527 20.3 67.6194 20.1833 67.7527 20.05C67.8861 19.8833 67.9694 19.7667 68.0027 19.7C68.0361 19.6 68.0861 19.5167 68.1527 19.45C68.2194 19.35 68.2694 19.2667 68.3027 19.2C68.3694 19.1 68.5527 18.95 68.8527 18.75C68.8527 18.65 69.0361 18.4333 69.4027 18.1L71.7027 15.2L73.0027 14.3C73.1361 14.1 73.4694 13.9333 74.0027 13.8C74.5694 13.6333 75.0861 13.5667 75.5527 13.6C76.0527 13.3 76.7861 13.4667 77.7527 14.1C78.2527 14.5667 78.2694 15.15 77.8027 15.85C76.9694 17.0833 76.4694 17.8 76.3027 18L74.1527 21L73.5527 21.95C72.3861 23.45 71.6527 24.35 71.3527 24.65C71.0861 24.9167 70.9694 25.15 71.0027 25.35C71.4361 25.7833 71.8027 26.0667 72.1027 26.2C72.2361 26.3667 72.3527 26.5167 72.4527 26.65C72.5861 26.75 72.6527 26.8167 72.6527 26.85L75.0527 29.25C76.2861 30.5833 77.2027 31.6833 77.8027 32.55L80.1027 35.1C80.6694 35.4333 80.9527 35.7833 80.9527 36.15C80.9527 36.5167 80.6361 36.8333 80.0027 37.1C79.8027 37.3 79.1861 37.35 78.1527 37.25C77.4527 37.3833 76.9361 37.3667 76.6027 37.2C75.6694 37.1667 74.7694 36.85 73.9027 36.25C73.3361 35.8167 73.0527 35.5 73.0527 35.3C72.8861 35.0667 72.7194 34.8667 72.5527 34.7C72.3527 34.4333 72.1861 34.1833 72.0527 33.95C71.7861 33.8167 71.4527 33.3833 71.0527 32.65C70.7527 32.45 70.6027 32.3333 70.6027 32.3C70.6027 32.2333 70.5027 32.1167 70.3027 31.95C70.1027 31.7833 69.9694 31.6833 69.9027 31.65C69.9027 31.5167 69.6194 31.1 69.0527 30.4C68.8527 30.3 68.6861 30.1667 68.5527 30C68.4527 29.8 68.4194 29.7 68.4527 29.7L67.5027 28.5L67.1027 27.9C67.1027 30.4333 67.3527 32.9833 67.8527 35.55C67.9194 36.0833 67.9527 36.4 67.9527 36.5C67.9861 36.6 68.0027 36.6833 68.0027 36.75C68.0361 36.85 68.0527 36.9167 68.0527 36.95L67.7027 36.8C67.8027 36.8667 67.9027 37.05 68.0027 37.35C68.1027 37.65 68.1361 37.85 68.1027 37.95C67.8027 38.2833 67.6027 38.5 67.5027 38.6C67.4361 38.7 67.2194 38.7667 66.8527 38.8C66.5194 38.8333 66.3361 38.7833 66.3027 38.65C65.7027 38.35 65.3527 38.15 65.2527 38.05C65.0527 38.0167 64.6527 37.85 64.0527 37.55C64.0194 37.4167 63.9694 37.3167 63.9027 37.25C63.6027 37.05 63.3694 36.8 63.2027 36.5C63.0694 36.4333 62.9194 36.2 62.7527 35.8C62.4527 35.2333 62.3027 34.6167 62.3027 33.95C62.2361 33.6833 62.1861 33.5333 62.1527 33.5C62.1194 33.4667 62.1027 33.3333 62.1027 33.1L61.9527 31.8C61.8527 31.4333 61.8361 31.1167 61.9027 30.85L61.6527 30.05L61.5527 28.3L61.6527 27.6C61.4527 27.3 61.4361 26.8667 61.6027 26.3V26C61.5694 25.9333 61.5361 25.6333 61.5027 25.1C61.4694 24.5667 61.4694 24.25 61.5027 24.15C61.5361 24.05 61.5527 23.9333 61.5527 23.8C61.4861 23.3333 61.4527 22.9167 61.4527 22.55V22C61.2861 18.6667 61.2027 16.9667 61.2027 16.9V15.5C61.1694 15.2667 61.1861 14.7167 61.2527 13.85C61.3527 12.9833 61.3861 12.2833 61.3527 11.75C61.3527 11.2167 61.3861 10.8833 61.4527 10.75C61.4527 10.45 61.4861 10.15 61.5527 9.85V9.3C61.5861 9.2 61.6194 8.88333 61.6527 8.35L61.9027 5.55ZM83.7488 29H83.7988C84.4322 28.9 85.0655 29.0833 85.6988 29.55L86.1988 30.1C86.2322 30.2333 86.4488 30.4333 86.8488 30.7C86.8822 30.8 86.8322 31.2333 86.6988 32C86.9322 32.1667 87.1322 32.6167 87.2988 33.35C87.3322 34.05 87.2155 35.2167 86.9488 36.85C87.0155 37.0167 86.9655 37.1833 86.7988 37.35C86.4322 37.7167 85.7322 37.7333 84.6988 37.4C84.6988 37.4333 84.6655 37.4333 84.5988 37.4C84.5655 37.4 84.4322 37.3667 84.1988 37.3C83.9988 37.2667 83.8322 37.2333 83.6988 37.2C83.5988 37.2 83.1988 37.1167 82.4988 36.95C81.8988 36.7167 81.5988 36.55 81.5988 36.45C81.2322 36.0833 81.0488 35.7833 81.0488 35.55C80.8488 35.15 80.8155 34.6833 80.9488 34.15C81.0822 33.6167 81.1822 33.1833 81.2488 32.85L81.6988 32C81.6988 31.7667 81.8822 31.2667 82.2488 30.5C82.3155 30.0667 82.3988 29.8 82.4988 29.7C83.0322 29.3667 83.4488 29.1333 83.7488 29ZM92.2086 22L92.7586 19.45L92.8086 18.35C92.8753 18.3167 92.9586 18.1 93.0586 17.7C93.2253 16.4667 93.9086 15.85 95.1086 15.85C95.7419 15.8833 96.4253 16.0667 97.1586 16.4C97.4253 16.4 97.6253 16.5167 97.7586 16.75C97.9253 16.7833 98.0753 16.8833 98.2086 17.05C98.3419 17.2167 98.3586 17.45 98.2586 17.75C98.1586 18.0167 98.0919 18.25 98.0586 18.45C98.0586 18.6167 97.9753 19.2 97.8086 20.2C97.3419 22.7 97.1419 24.3833 97.2086 25.25L99.9086 21.15L100.909 19.35C101.475 19.05 101.992 18.85 102.459 18.75C102.692 18.75 102.959 18.8 103.259 18.9C104.225 19.0333 104.709 19.1667 104.709 19.3L105.309 19.7C105.709 20.1667 105.909 20.55 105.909 20.85C105.942 21.15 105.909 21.45 105.809 21.75C105.742 22.0167 105.642 22.3667 105.509 22.8C105.509 22.8333 105.159 24.7333 104.459 28.5L106.459 24.2L106.959 23.55C106.959 23.25 107.292 22.6167 107.959 21.65L108.459 20.75C108.459 20.65 108.575 20.4833 108.809 20.25C108.909 20.25 109.009 20.1 109.109 19.8C109.542 19.1333 109.942 18.7167 110.309 18.55C110.875 18.35 111.575 18.3167 112.409 18.45L113.059 18.75C113.192 19.0167 113.292 19.1667 113.359 19.2H113.509C113.909 19.5667 114.059 19.9833 113.959 20.45C113.825 21.0833 113.759 21.5 113.759 21.7L113.209 25.6C113.142 25.6667 113.109 25.7667 113.109 25.9C113.042 25.9667 112.942 26.8667 112.809 28.6C112.709 30.3333 112.659 32.0333 112.659 33.7L112.709 34.3L112.959 35.15L113.309 35.95C113.375 36.35 113.275 36.6833 113.009 36.95C112.775 37.25 112.475 37.4 112.109 37.4C109.842 37.3333 108.609 36.6167 108.409 35.25C108.309 35.0833 108.259 34.9 108.259 34.7C108.259 34.5 108.192 34.2 108.059 33.8V33.25L108.159 32.5C108.059 32.5 108.009 31.9667 108.009 30.9C108.009 29.8 108.042 29.1667 108.109 29C108.242 28.4333 108.309 27.8333 108.309 27.2C108.209 27.3333 108.042 27.5333 107.809 27.8C107.342 28.3333 107.042 28.7333 106.909 29L105.959 31C105.225 32.6667 104.675 33.7333 104.309 34.2C103.942 34.6667 103.342 34.8833 102.509 34.85C101.675 34.8167 101.159 34.7 100.959 34.5C100.692 34.3667 100.475 34.2667 100.309 34.2C100.175 34.1 100.125 33.7167 100.159 33.05V32.55L100.809 28.45C101.009 27.7167 101.109 27.2833 101.109 27.15L101.309 25.95V25L100.809 25.7L100.359 26.6C100.225 26.7333 100.159 26.9 100.159 27.1C99.9919 27.2 99.8586 27.3833 99.7586 27.65L97.8086 31.6C97.2419 32.7667 96.9253 33.65 96.8586 34.25C96.6586 34.5833 96.4086 34.9667 96.1086 35.4C95.8419 35.8333 95.5419 36.0333 95.2086 36C94.9086 35.9333 94.6919 35.85 94.5586 35.75C94.4253 35.65 94.3753 35.5167 94.4086 35.35C94.0086 35.5167 93.6919 35.3833 93.4586 34.95L92.2586 33.4C92.1253 33.3 92.0586 33.1167 92.0586 32.85C92.1586 32.45 92.1586 32.1167 92.0586 31.85C91.9586 31.5833 91.9253 31.3667 91.9586 31.2C91.8919 30.9 91.8586 30.4833 91.8586 29.95C91.8586 29.3167 91.8086 28.85 91.7086 28.55C91.7086 28.2833 91.7419 28.0167 91.8086 27.75V27.25C91.7419 25.7833 91.8419 24.9167 92.1086 24.65C91.9086 24.35 91.9253 23.6667 92.1586 22.6L92.2086 22ZM128.306 20V19.45C128.306 19.0833 128.289 18.9 128.256 18.9L127.956 18.8C127.723 18.8 127.539 18.7667 127.406 18.7C127.173 18.7667 126.989 18.8667 126.856 19C126.423 19.2667 126.123 19.5833 125.956 19.95L124.856 22.15C124.356 23.1833 124.073 24.5167 124.006 26.15C124.873 26.5167 125.506 26.5 125.906 26.1C126.139 25.9 126.339 25.6667 126.506 25.4C126.573 25.1667 126.706 24.95 126.906 24.75C127.106 24.5167 127.306 23.9667 127.506 23.1C128.039 22.2667 128.306 21.2333 128.306 20ZM132.756 20.7V21.25C132.689 23.2833 132.089 25.1167 130.956 26.75C130.789 26.9833 130.556 27.25 130.256 27.55L129.156 28.65C128.923 28.8833 128.623 29.1 128.256 29.3L127.156 29.6C127.056 29.5333 126.773 29.4667 126.306 29.4C125.939 29.5333 125.623 29.5 125.356 29.3C125.323 29.3 125.139 29.2333 124.806 29.1C124.506 28.9667 124.123 28.8833 123.656 28.85C123.723 29.3833 123.756 29.9667 123.756 30.6L124.356 32.9C124.723 33.6 125.073 34.05 125.406 34.25C125.773 34.4167 126.156 34.5167 126.556 34.55C126.989 34.55 127.306 34.5 127.506 34.4C127.739 34.3 128.123 34.15 128.656 33.95L129.656 33.45C130.356 33.05 130.956 33.15 131.456 33.75C131.723 34.05 131.839 34.45 131.806 34.95C131.773 35.4167 131.573 35.85 131.206 36.25C131.006 36.7167 130.489 37.15 129.656 37.55C129.623 37.55 129.473 37.6167 129.206 37.75C127.706 38.4833 126.039 38.5833 124.206 38.05L123.256 37.6C123.156 37.6 123.056 37.55 122.956 37.45C122.556 37.35 122.123 37.1 121.656 36.7C121.189 36.3 120.856 35.9667 120.656 35.7C120.489 35.4333 120.373 35.25 120.306 35.15C120.239 35.05 120.123 34.8333 119.956 34.5C119.389 33.4333 118.973 32.4167 118.706 31.45L118.406 30C118.473 29.8667 118.489 29.4833 118.456 28.85V28.05C118.156 27.5167 118.339 26.3 119.006 24.4C119.539 21.8667 119.973 20.3833 120.306 19.95L120.956 18.65C120.956 18.6167 121.156 18.3667 121.556 17.9C121.623 17.7333 122.006 17.4 122.706 16.9C122.839 16.7 123.039 16.5833 123.306 16.55C123.439 16.4167 123.656 16.3 123.956 16.2C124.223 15.9667 124.623 15.8167 125.156 15.75C125.656 15.5833 126.423 15.5333 127.456 15.6C129.823 15.8 131.439 16.8 132.306 18.6L132.656 19.7C132.656 19.8667 132.706 20.0667 132.806 20.3C132.773 20.3667 132.756 20.5 132.756 20.7Z" fill="white"/>
</svg>
